<svg xmlns="http://www.w3.org/2000/svg" viewBox="0 0 46 47" fill="none">
  <g fill="#f97316" clipPath="url(#logo-clip)">
    <path d="M19.03 46.41a3.175 3.175 0 0 0 3.166-3.174v-4.758h12.697a3.174 3.174 0 0 0 0-6.349H22.196v-4.757a3.167 3.167 0 0 0-3.174-3.167 3.167 3.167 0 0 0-3.166 3.167v15.864a3.174 3.174 0 0 0 3.174 3.174Z" />
    <path d="M46.002 27.37a3.167 3.167 0 0 0-3.175-3.167H38.07V11.506a3.174 3.174 0 1 0-6.349 0v12.697h-4.757a3.161 3.161 0 0 0-3.167 3.167 3.167 3.167 0 0 0 3.167 3.174h15.863a3.174 3.174 0 0 0 3.175-3.174Z" />
    <path d="M26.962.408a3.167 3.167 0 0 0-3.167 3.174V8.34H11.1a3.174 3.174 0 0 0-3.167 3.167 3.174 3.174 0 0 0 3.167 3.174h12.696v4.758a3.167 3.167 0 0 0 5.412 2.237c.595-.596.93-1.403.93-2.245V3.582A3.174 3.174 0 0 0 26.961.408Z" />
    <path d="M0 19.438a3.174 3.174 0 0 0 3.174 3.167h4.758v12.697a3.174 3.174 0 0 0 3.167 3.174 3.175 3.175 0 0 0 3.166-3.174V22.605h4.758a3.174 3.174 0 0 0 3.174-3.167 3.174 3.174 0 0 0-3.174-3.166H3.174A3.174 3.174 0 0 0 0 19.438Z" />
  </g>
  <defs>
    <clipPath id="logo-clip">
      <path fill="#fff" d="M0 .408h46v46H0z" />
    </clipPath>
  </defs>
</svg>
